<svg width="329" height="40" viewBox="0 0 329 40" fill="none" xmlns="http://www.w3.org/2000/svg">
<path d="M9.384 5.73599C14.6 5.73599 18.776 6.91999 21.912 9.28799C25.08 11.624 26.664 15.928 26.664 22.2C26.664 28.376 25.128 32.728 22.056 35.256C18.984 37.752 15 39 10.104 39H0.119995V5.73599H9.384ZM7.992 11.448V33.288H10.584C13.176 33.288 15.144 32.488 16.488 30.888C17.832 29.256 18.504 26.36 18.504 22.2C18.504 19.352 18.168 17.144 17.496 15.576C16.824 14.008 15.912 12.936 14.76 12.36C13.608 11.752 12.184 11.448 10.488 11.448H7.992Z" fill="#141414"/>
<path d="M51.0289 31.608C51.0289 32.568 51.1569 33.272 51.4129 33.72C51.7009 34.168 52.1489 34.504 52.7569 34.728L51.1729 39.672C49.6049 39.544 48.3249 39.208 47.3329 38.664C46.3409 38.088 45.5729 37.192 45.0289 35.976C43.3649 38.536 40.8049 39.816 37.3489 39.816C34.8209 39.816 32.8049 39.08 31.3009 37.608C29.7969 36.136 29.0449 34.216 29.0449 31.848C29.0449 29.064 30.0689 26.936 32.1169 25.464C34.1649 23.992 37.1249 23.256 40.9969 23.256H43.5889V22.152C43.5889 20.648 43.2689 19.624 42.6289 19.08C41.9889 18.504 40.8689 18.216 39.2689 18.216C38.4369 18.216 37.4289 18.344 36.2449 18.6C35.0609 18.824 33.8449 19.144 32.5969 19.56L30.8689 14.568C32.4689 13.96 34.1009 13.496 35.7649 13.176C37.4609 12.856 39.0289 12.696 40.4689 12.696C44.1169 12.696 46.7889 13.448 48.4849 14.952C50.1809 16.456 51.0289 18.712 51.0289 21.72V31.608ZM39.5569 34.392C41.2849 34.392 42.6289 33.576 43.5889 31.944V27.432H41.7169C39.9889 27.432 38.6929 27.736 37.8289 28.344C36.9969 28.952 36.5809 29.896 36.5809 31.176C36.5809 32.2 36.8369 33 37.3489 33.576C37.8929 34.12 38.6289 34.392 39.5569 34.392Z" fill="#141414"/>
<path d="M71.9977 12.696C74.2057 12.696 75.9337 13.368 77.1817 14.712C78.4297 16.056 79.0537 17.944 79.0537 20.376V39H71.4697V21.672C71.4697 20.392 71.2617 19.512 70.8457 19.032C70.4617 18.52 69.8697 18.264 69.0697 18.264C67.5337 18.264 66.0617 19.368 64.6537 21.576V39H57.0697V13.512H63.6937L64.2217 16.536C65.3097 15.256 66.4777 14.296 67.7257 13.656C69.0057 13.016 70.4297 12.696 71.9977 12.696Z" fill="#141414"/>
<path d="M92.3569 13.512V39H84.7729V13.512H92.3569ZM88.5169 0.071991C89.8289 0.071991 90.9009 0.487991 91.7329 1.31999C92.5969 2.11999 93.0289 3.14399 93.0289 4.39199C93.0289 5.63999 92.5969 6.67999 91.7329 7.51199C90.9009 8.31199 89.8289 8.71199 88.5169 8.71199C87.2049 8.71199 86.1329 8.31199 85.3009 7.51199C84.4689 6.67999 84.0529 5.63999 84.0529 4.39199C84.0529 3.14399 84.4689 2.11999 85.3009 1.31999C86.1329 0.487991 87.2049 0.071991 88.5169 0.071991Z" fill="#141414"/>
<path d="M105.088 39.816C102.88 39.816 101.152 39.192 99.9037 37.944C98.6877 36.664 98.0797 34.856 98.0797 32.52V3.38399L105.664 2.56799V32.232C105.664 33.288 106.096 33.816 106.96 33.816C107.408 33.816 107.824 33.736 108.208 33.576L109.696 38.952C108.32 39.528 106.784 39.816 105.088 39.816Z" fill="#141414"/>
<path d="M123.375 12.696C127.279 12.696 130.335 13.896 132.543 16.296C134.751 18.664 135.855 21.992 135.855 26.28C135.855 29 135.343 31.384 134.319 33.432C133.327 35.448 131.887 37.016 129.999 38.136C128.143 39.256 125.935 39.816 123.375 39.816C119.503 39.816 116.447 38.632 114.207 36.264C111.999 33.864 110.895 30.52 110.895 26.232C110.895 23.512 111.391 21.144 112.383 19.128C113.407 17.08 114.847 15.496 116.703 14.376C118.591 13.256 120.815 12.696 123.375 12.696ZM123.375 18.264C121.839 18.264 120.687 18.92 119.919 20.232C119.151 21.512 118.767 23.512 118.767 26.232C118.767 29.016 119.135 31.048 119.871 32.328C120.639 33.608 121.807 34.248 123.375 34.248C124.911 34.248 126.063 33.608 126.831 32.328C127.599 31.016 127.983 29 127.983 26.28C127.983 23.496 127.599 21.464 126.831 20.184C126.095 18.904 124.943 18.264 123.375 18.264Z" fill="#141414"/>
<path d="M162.845 26.28H159.773V39H151.901V5.73599H162.797C167.341 5.73599 170.749 6.56799 173.021 8.23199C175.325 9.89599 176.477 12.44 176.477 15.864C176.477 18.008 175.965 19.8 174.941 21.24C173.917 22.648 172.301 23.848 170.093 24.84L178.541 39H169.661L162.845 26.28ZM159.773 20.856H163.085C164.845 20.856 166.157 20.456 167.021 19.656C167.917 18.856 168.365 17.592 168.365 15.864C168.365 14.264 167.885 13.096 166.925 12.36C165.997 11.624 164.557 11.256 162.605 11.256H159.773V20.856Z" fill="#141414"/>
<path d="M191.719 12.696C195.623 12.696 198.679 13.896 200.887 16.296C203.095 18.664 204.199 21.992 204.199 26.28C204.199 29 203.687 31.384 202.663 33.432C201.671 35.448 200.231 37.016 198.343 38.136C196.487 39.256 194.279 39.816 191.719 39.816C187.847 39.816 184.791 38.632 182.551 36.264C180.343 33.864 179.239 30.52 179.239 26.232C179.239 23.512 179.735 21.144 180.727 19.128C181.751 17.08 183.191 15.496 185.047 14.376C186.935 13.256 189.159 12.696 191.719 12.696ZM191.719 18.264C190.183 18.264 189.031 18.92 188.263 20.232C187.495 21.512 187.111 23.512 187.111 26.232C187.111 29.016 187.479 31.048 188.215 32.328C188.983 33.608 190.151 34.248 191.719 34.248C193.255 34.248 194.407 33.608 195.175 32.328C195.943 31.016 196.327 29 196.327 26.28C196.327 23.496 195.943 21.464 195.175 20.184C194.439 18.904 193.287 18.264 191.719 18.264Z" fill="#141414"/>
<path d="M236.886 12.696C238.902 12.696 240.518 13.384 241.734 14.76C242.95 16.104 243.558 17.976 243.558 20.376V39H235.974V21.672C235.974 19.4 235.254 18.264 233.814 18.264C233.014 18.264 232.31 18.536 231.702 19.08C231.094 19.624 230.502 20.456 229.926 21.576V39H222.342V21.672C222.342 19.4 221.622 18.264 220.182 18.264C219.414 18.264 218.71 18.552 218.07 19.128C217.462 19.672 216.87 20.488 216.294 21.576V39H208.71V13.512H215.334L215.862 16.488C216.854 15.208 217.942 14.264 219.126 13.656C220.342 13.016 221.718 12.696 223.254 12.696C224.694 12.696 225.926 13.048 226.95 13.752C228.006 14.456 228.774 15.448 229.254 16.728C230.278 15.352 231.398 14.344 232.614 13.704C233.862 13.032 235.286 12.696 236.886 12.696Z" fill="#141414"/>
<path d="M271.481 25.752C271.481 26.808 271.433 27.72 271.337 28.488H255.545C255.801 30.632 256.409 32.136 257.369 33C258.329 33.864 259.657 34.296 261.353 34.296C262.377 34.296 263.369 34.12 264.329 33.768C265.289 33.384 266.329 32.808 267.449 32.04L270.569 36.264C267.593 38.632 264.281 39.816 260.633 39.816C256.505 39.816 253.337 38.6 251.129 36.168C248.921 33.736 247.817 30.472 247.817 26.376C247.817 23.784 248.281 21.464 249.209 19.416C250.137 17.336 251.497 15.704 253.289 14.52C255.081 13.304 257.225 12.696 259.721 12.696C263.401 12.696 266.281 13.848 268.361 16.152C270.441 18.456 271.481 21.656 271.481 25.752ZM264.041 23.592C263.977 19.688 262.601 17.736 259.913 17.736C258.601 17.736 257.577 18.216 256.841 19.176C256.137 20.136 255.705 21.72 255.545 23.928H264.041V23.592Z" fill="#141414"/>
<path d="M283.326 13.512V39H275.742V13.512H283.326ZM279.486 0.071991C280.798 0.071991 281.87 0.487991 282.702 1.31999C283.566 2.11999 283.998 3.14399 283.998 4.39199C283.998 5.63999 283.566 6.67999 282.702 7.51199C281.87 8.31199 280.798 8.71199 279.486 8.71199C278.174 8.71199 277.102 8.31199 276.27 7.51199C275.438 6.67999 275.022 5.63999 275.022 4.39199C275.022 3.14399 275.438 2.11999 276.27 1.31999C277.102 0.487991 278.174 0.071991 279.486 0.071991Z" fill="#141414"/>
<path d="M303.112 12.792C304.04 12.792 304.888 12.904 305.656 13.128L304.456 20.472C303.496 20.248 302.728 20.136 302.152 20.136C300.648 20.136 299.497 20.664 298.697 21.72C297.929 22.744 297.32 24.296 296.872 26.376V39H289.288V13.512H295.913L296.536 18.456C297.112 16.696 297.977 15.32 299.129 14.328C300.313 13.304 301.64 12.792 303.112 12.792Z" fill="#141414"/>
<path d="M327.123 31.608C327.123 32.568 327.251 33.272 327.507 33.72C327.795 34.168 328.243 34.504 328.851 34.728L327.267 39.672C325.699 39.544 324.419 39.208 323.427 38.664C322.435 38.088 321.667 37.192 321.123 35.976C319.459 38.536 316.899 39.816 313.443 39.816C310.915 39.816 308.899 39.08 307.395 37.608C305.891 36.136 305.139 34.216 305.139 31.848C305.139 29.064 306.163 26.936 308.211 25.464C310.259 23.992 313.219 23.256 317.091 23.256H319.683V22.152C319.683 20.648 319.363 19.624 318.723 19.08C318.083 18.504 316.963 18.216 315.363 18.216C314.531 18.216 313.523 18.344 312.339 18.6C311.155 18.824 309.939 19.144 308.691 19.56L306.963 14.568C308.563 13.96 310.195 13.496 311.859 13.176C313.555 12.856 315.123 12.696 316.563 12.696C320.211 12.696 322.883 13.448 324.579 14.952C326.275 16.456 327.123 18.712 327.123 21.72V31.608ZM315.651 34.392C317.379 34.392 318.723 33.576 319.683 31.944V27.432H317.811C316.083 27.432 314.787 27.736 313.923 28.344C313.091 28.952 312.675 29.896 312.675 31.176C312.675 32.2 312.931 33 313.443 33.576C313.987 34.12 314.723 34.392 315.651 34.392Z" fill="#141414"/>
</svg>
